<?xml version="1.0" encoding="utf-8"?>
<!-- Svg Vector Icons : http://www.onlinewebfonts.com/icon -->
<!DOCTYPE svg PUBLIC "-//W3C//DTD SVG 1.1//EN" "http://www.w3.org/Graphics/SVG/1.1/DTD/svg11.dtd">
<svg version="1.1" xmlns="http://www.w3.org/2000/svg" xmlns:xlink="http://www.w3.org/1999/xlink" x="0px" y="0px" viewBox="0 0 256 256" enable-background="new 0 0 256 256" xml:space="preserve" fill="white">
<metadata> Svg Vector Icons : http://www.onlinewebfonts.com/icon </metadata>
<g><g><g><path d="M24.2,11.5c0,0.8,2.1,24.7,4.6,52.9c2.5,28.3,6.7,75.3,9.3,104.4c2.6,29.1,4.8,53.2,5,53.4c0.2,0.2,19.3,5.6,42.6,12l42.2,11.8l42.6-11.9l42.6-11.8l9.3-104.2c5.2-57.3,9.4-105.1,9.4-106.2l0-1.9H128H24.2V11.5z M193,54.5c0,1.5-1.8,21.7-2.1,23.6l-0.2,1.5h-49.8H91.1l0.2,1.9c0.2,1.1,0.7,6.9,1.2,12.8c0.6,5.9,1.1,11.1,1.2,11.4c0.1,0.5,10.1,0.6,47.5,0.6h47.4l-0.3,2.6c-0.2,1.5-1.8,19.4-3.6,39.8c-1.8,20.4-3.4,37.2-3.5,37.3c0,0.1-12.1,3.5-26.7,7.6l-26.6,7.4l-26.2-7.3c-14.4-4-26.4-7.4-26.7-7.6c-0.3-0.2-1.2-7.8-2.1-18.3c-0.9-9.9-1.7-19-1.8-20.4l-0.3-2.4h13.1c10.2,0,13.2,0.1,13.2,0.6c0,1.3,1.8,20.3,1.9,20.4c0.1,0,6.6,1.8,14.5,3.9l14.3,3.8l14.3-3.8c7.8-2.1,14.3-3.9,14.5-4.1c0.2-0.2,3.1-30.4,3.1-32.9c0-0.7-2.5-0.8-45.1-0.8H69.7l-3.5-39.1c-1.9-21.5-3.4-39.2-3.3-39.4c0.1-0.2,29.4-0.3,65.2-0.3h65V54.5L193,54.5z"/></g></g></g>
</svg>