<svg width="16" height="16" viewBox="0 0 16 16" fill="none" xmlns="http://www.w3.org/2000/svg">
<g clip-path="url(#clip0_607_20)">
<path d="M9.44163 2.31017C9.15085 1.8525 9.24385 1.55066 9.40433 1.23906C9.54799 0.960137 9.60666 0.475401 9.09908 0.0939097C9.56641 -0.0780989 10.3039 0.226029 10.3166 0.783138C10.0454 1.15628 9.30463 1.30455 9.44163 2.31017ZM12.797 12.595C12.5701 13.3304 12.6736 13.7217 11.6868 15.2487C13.4314 14.0709 14.2546 12.5503 14.5262 10.8244C14.6968 11.5441 14.7129 12.1969 14.6459 12.8137C16.0917 10.9104 17.0823 7.0722 13.7504 3.21404C13.6163 4.91943 11.967 6.26223 10.0648 5.7357C13.3263 5.37616 13.5353 1.229 10.7334 0.271375C10.7881 1.42514 9.21397 1.04733 9.67691 2.59082C8.07352 1.68367 4.57039 1.49723 3.17773 2.87352C2.45979 3.58302 1.96972 4.16981 1.07246 4.20857C0.331592 4.24057 -0.646701 5.44275 0.626156 6.05758C0.747729 6.56991 1.17496 6.86164 1.4227 6.91191C1.36108 7.82426 1.55516 7.35908 1.83954 6.96143C1.74398 8.1147 1.90146 7.69924 2.34718 7.10588C6.11808 6.34325 8.20064 9.41847 8.22419 11.3073C8.20762 10.9646 7.65978 10.5661 7.36988 10.6758C7.17401 11.0908 6.96057 11.4431 6.69716 11.6168C6.7247 11.3417 6.70589 11.0665 6.65589 10.7914C6.56906 11.1241 6.40552 11.4696 6.14412 11.8314C5.62421 11.8604 4.89654 11.4737 5.10821 10.8327C5.40679 10.2092 4.82113 10.0796 4.34931 10.2581C3.99478 10.3922 3.7552 10.7636 3.72242 10.8791C3.60416 11.2957 3.64308 12.2258 4.452 12.8426C4.23993 12.8816 4.02221 12.9164 3.87421 13.0035C5.25023 13.8357 6.65475 13.5546 7.43688 13.2405C8.71745 12.7264 9.60067 11.3032 9.73884 10.2054C10.0943 11.7495 9.4575 13.4657 8.03016 14.3862C8.43795 14.4293 9.23619 14.153 10.0525 13.862C9.43539 14.6386 8.69779 15.375 7.48951 15.9544C9.86943 15.7551 11.6102 14.5601 12.797 12.595Z" fill="#D9D9D9"/>
</g>
<defs>
<clipPath id="clip0_607_20">
<rect width="16" height="16" fill="white"/>
</clipPath>
</defs>
</svg>
