<svg width="16" height="16" viewBox="0 0 16 16" fill="none" xmlns="http://www.w3.org/2000/svg">
<g clip-path="url(#clip0_607_23)">
<path d="M0 8V16H16V0H0V8ZM12.894 7.36267C13.3007 7.464 13.61 7.64467 13.8947 7.93933C14.042 8.09667 14.2607 8.38333 14.278 8.45267C14.2833 8.47267 13.5873 8.93933 13.166 9.20133C13.1507 9.21133 13.0893 9.14533 13.0213 9.044C12.8147 8.744 12.5993 8.61467 12.2693 8.592C11.784 8.55867 11.472 8.81267 11.4747 9.23667C11.4702 9.34093 11.4937 9.4445 11.5427 9.53667C11.6493 9.75733 11.848 9.89 12.4693 10.1587C13.6153 10.652 14.1053 10.9767 14.41 11.4387C14.75 11.954 14.8267 12.7773 14.5953 13.3893C14.342 14.0547 13.712 14.5067 12.8253 14.656C12.5513 14.7047 11.9013 14.6973 11.6067 14.644C10.964 14.5293 10.3547 14.212 9.97867 13.7953C9.83133 13.6333 9.544 13.2087 9.562 13.1787C9.60821 13.1433 9.65727 13.1119 9.70867 13.0847C9.78067 13.044 10.0493 12.8887 10.3033 12.7413L10.7633 12.4747L10.86 12.6173C10.9947 12.8227 11.2887 13.1047 11.4667 13.1987C11.9773 13.468 12.678 13.43 13.0233 13.12C13.0928 13.0615 13.1477 12.9877 13.1839 12.9045C13.2201 12.8212 13.2366 12.7307 13.232 12.64C13.232 12.4547 13.2087 12.3733 13.112 12.2333C12.988 12.056 12.734 11.9067 12.0127 11.5933C11.1873 11.238 10.832 11.0173 10.5067 10.6667C10.3036 10.4352 10.1537 10.1622 10.0673 9.86667C10.0067 9.64067 9.99133 9.074 10.0393 8.846C10.2093 8.048 10.8113 7.49267 11.68 7.32733C11.962 7.274 12.6173 7.294 12.894 7.36267ZM9.138 8.03067L9.14333 8.686H7.06V14.6033H5.58667V8.686H3.50533V8.04333C3.50533 7.68733 3.51267 7.39 3.52267 7.38333C3.53067 7.37267 4.798 7.36733 6.334 7.37L9.13067 7.378L9.138 8.03067Z" fill="#D9D9D9"/>
</g>
<defs>
<clipPath id="clip0_607_23">
<rect width="16" height="16" fill="white"/>
</clipPath>
</defs>
</svg>
